<svg width="60" height="60" viewBox="0 0 60 60" fill="none" xmlns="http://www.w3.org/2000/svg">
<path fill-rule="evenodd" clip-rule="evenodd" d="M17.5 7.5C11.9772 7.5 7.5 11.9772 7.5 17.5V42.5C7.5 48.0228 11.9772 52.5 17.5 52.5H42.5C48.0229 52.5 52.5 48.0228 52.5 42.5V17.5C52.5 11.9772 48.0229 7.5 42.5 7.5H17.5ZM2.5 17.5C2.5 9.21573 9.21573 2.5 17.5 2.5H42.5C50.7843 2.5 57.5 9.21573 57.5 17.5V42.5C57.5 50.7843 50.7843 57.5 42.5 57.5H17.5C9.21573 57.5 2.5 50.7843 2.5 42.5V17.5Z" fill="#757575"/>
<path fill-rule="evenodd" clip-rule="evenodd" d="M31.2085 22.473C29.6481 22.2416 28.0544 22.5081 26.6541 23.2347C25.2539 23.9612 24.1184 25.1108 23.4092 26.5199C22.6999 27.929 22.453 29.5259 22.7037 31.0834C22.9543 32.6408 23.6896 34.0797 24.8051 35.1951C25.9206 36.3106 27.3594 37.046 28.9169 37.2966C30.4744 37.5472 32.0712 37.3003 33.4803 36.5911C34.8894 35.8819 36.039 34.7464 36.7656 33.3461C37.4922 31.9459 37.7587 30.3522 37.5273 28.7917C37.2913 27.2 36.5495 25.7264 35.4117 24.5885C34.2739 23.4507 32.8003 22.709 31.2085 22.473ZM24.3513 18.7965C26.685 17.5856 29.3412 17.1414 31.942 17.527C34.5948 17.9204 37.0509 19.1566 38.9473 21.053C40.8436 22.9494 42.0798 25.4054 42.4732 28.0583C42.8589 30.6591 42.4146 33.3152 41.2037 35.649C39.9928 37.9827 38.0768 39.8752 35.7283 41.0573C33.3798 42.2393 30.7184 42.6508 28.1225 42.2331C25.5267 41.8154 23.1287 40.5898 21.2696 38.7307C19.4104 36.8715 18.1849 34.4735 17.7672 31.8777C17.3495 29.2819 17.7609 26.6205 18.943 24.272C20.125 21.9235 22.0175 20.0075 24.3513 18.7965Z" fill="#FF8A5B"/>
<path fill-rule="evenodd" clip-rule="evenodd" d="M41.25 16.25C41.25 14.8693 42.3693 13.75 43.75 13.75H43.775C45.1557 13.75 46.275 14.8693 46.275 16.25C46.275 17.6307 45.1557 18.75 43.775 18.75H43.75C42.3693 18.75 41.25 17.6307 41.25 16.25Z" fill="#FF8A5B"/>
</svg>
