<svg width="60" height="60" viewBox="0 0 60 60" fill="none" xmlns="http://www.w3.org/2000/svg">
<path fill-rule="evenodd" clip-rule="evenodd" d="M12.5 10C11.837 10 11.2011 10.2634 10.7322 10.7322C10.2634 11.2011 10 11.837 10 12.5V46.4645L15.7322 40.7322C16.2011 40.2634 16.837 40 17.5 40H47.5C48.163 40 48.7989 39.7366 49.2678 39.2678C49.7366 38.7989 50 38.163 50 37.5V12.5C50 11.837 49.7366 11.2011 49.2678 10.7322C48.7989 10.2634 48.163 10 47.5 10H12.5ZM7.1967 7.1967C8.60322 5.79018 10.5109 5 12.5 5H47.5C49.4891 5 51.3968 5.79018 52.8033 7.1967C54.2098 8.60322 55 10.5109 55 12.5V37.5C55 39.4891 54.2098 41.3968 52.8033 42.8033C51.3968 44.2098 49.4891 45 47.5 45H18.5355L9.26777 54.2678C8.55277 54.9828 7.47748 55.1967 6.54329 54.8097C5.60911 54.4227 5 53.5112 5 52.5V12.5C5 10.5109 5.79018 8.60322 7.1967 7.1967Z" fill="#868282"/>
<line x1="21.5" y1="15.5" x2="39.5" y2="15.5" stroke="#FF8A5B" stroke-width="5" stroke-linecap="round"/>
<path d="M16 24.5H45" stroke="#FF8A5B" stroke-width="5" stroke-linecap="round"/>
<path d="M23 33.5H39" stroke="#FF8A5B" stroke-width="5" stroke-linecap="round"/>
</svg>
