<svg width="48" height="48" viewBox="0 0 48 48" fill="none" xmlns="http://www.w3.org/2000/svg">
<path fill-rule="evenodd" clip-rule="evenodd" d="M24 20C21.7909 20 20 21.7909 20 24C20 26.2091 21.7909 28 24 28C26.2091 28 28 26.2091 28 24C28 21.7909 26.2091 20 24 20ZM16 24C16 19.5817 19.5817 16 24 16C28.4183 16 32 19.5817 32 24C32 28.4183 28.4183 32 24 32C19.5817 32 16 28.4183 16 24Z" fill="#FF8A5B"/>
<path fill-rule="evenodd" clip-rule="evenodd" d="M24 4C23.4696 4 22.9609 4.21071 22.5858 4.58579C22.2107 4.96086 22 5.46957 22 6V6.34798C21.9959 7.3816 21.6896 8.39145 21.1189 9.25323C20.5482 10.115 19.7379 10.7911 18.7879 11.1983C18.6188 11.2708 18.4408 11.3194 18.2592 11.3431C17.396 11.6454 16.4667 11.72 15.562 11.5559C14.52 11.367 13.5585 10.8702 12.8015 10.1297L12.7857 10.1143L12.6658 9.99421C12.48 9.80826 12.2587 9.65996 12.0159 9.55931C11.7731 9.45866 11.5128 9.40685 11.25 9.40685C10.9872 9.40685 10.7269 9.45866 10.4841 9.55931C10.2413 9.65996 10.0207 9.80747 9.835 9.99343L9.83343 9.995C9.64747 10.1807 9.49996 10.4013 9.39931 10.6441C9.29866 10.8869 9.24685 11.1472 9.24685 11.41C9.24685 11.6728 9.29866 11.9331 9.39931 12.1759C9.49996 12.4187 9.64747 12.6393 9.83343 12.825L9.96981 12.9614C10.7103 13.7184 11.207 14.68 11.3959 15.722C11.5811 16.7433 11.4623 17.7959 11.0549 18.7496C10.6838 19.7227 10.034 20.5653 9.18609 21.1718C8.32109 21.7904 7.28996 22.1346 6.22677 22.1595L6.18 22.16H6C5.46957 22.16 4.96086 22.3707 4.58579 22.7458C4.21071 23.1209 4 23.6296 4 24.16C4 24.6904 4.21071 25.1991 4.58579 25.5742C4.96086 25.9493 5.46957 26.16 6 26.16H6.34798C7.3816 26.1641 8.39145 26.4704 9.25323 27.0411C10.112 27.6099 10.7864 28.4165 11.194 29.3622C11.6182 30.3285 11.7442 31.3995 11.5559 32.438C11.367 33.48 10.8702 34.4415 10.1297 35.1985L10.1143 35.2143L9.99421 35.3342C9.80826 35.52 9.65996 35.7413 9.55931 35.9841C9.45866 36.2269 9.40685 36.4872 9.40685 36.75C9.40685 37.0128 9.45866 37.2731 9.55931 37.5159C9.65996 37.7587 9.80748 37.9793 9.99343 38.165L9.995 38.1666C10.1807 38.3525 10.4013 38.5 10.6441 38.6007C10.8869 38.7013 11.1472 38.7531 11.41 38.7531C11.6728 38.7531 11.9331 38.7013 12.1759 38.6007C12.4187 38.5 12.6393 38.3525 12.825 38.1666L12.9614 38.0302C13.7184 37.2897 14.68 36.793 15.722 36.6041C16.7433 36.4189 17.7959 36.5377 18.7495 36.9451C19.7226 37.3162 20.5653 37.966 21.1718 38.8139C21.7904 39.6789 22.1346 40.71 22.1595 41.7732L22.16 41.82V42C22.16 42.5304 22.3707 43.0391 22.7458 43.4142C23.1209 43.7893 23.6296 44 24.16 44C24.6904 44 25.1991 43.7893 25.5742 43.4142C25.9493 43.0391 26.16 42.5304 26.16 42V41.66L26.16 41.652C26.1641 40.6184 26.4704 39.6086 27.0411 38.7468C27.6099 37.8879 28.4166 37.2135 29.3625 36.8059C30.3287 36.3818 31.3996 36.2558 32.438 36.4441C33.48 36.633 34.4415 37.1298 35.1985 37.8703L35.2143 37.8857L35.3342 38.0058C35.52 38.1917 35.7413 38.34 35.9841 38.4407C36.2269 38.5413 36.4872 38.5931 36.75 38.5931C37.0128 38.5931 37.2731 38.5413 37.5159 38.4407C37.7587 38.34 37.9793 38.1925 38.165 38.0066L38.1666 38.005C38.3525 37.8193 38.5 37.5987 38.6007 37.3559C38.7013 37.1131 38.7531 36.8528 38.7531 36.59C38.7531 36.3272 38.7013 36.0669 38.6007 35.8241C38.5 35.5813 38.3525 35.3607 38.1666 35.175L38.0302 35.0386C37.2897 34.2816 36.793 33.32 36.6041 32.278C36.4158 31.2396 36.5418 30.1687 36.9659 29.2025C37.3735 28.2566 38.0479 27.4499 38.9068 26.8811C39.7686 26.3104 40.7784 26.0041 41.812 26L41.82 26L42 26C42.5304 26 43.0391 25.7893 43.4142 25.4142C43.7893 25.0391 44 24.5304 44 24C44 23.4696 43.7893 22.9609 43.4142 22.5858C43.0391 22.2107 42.5304 22 42 22H41.66L41.652 22C40.6184 21.9959 39.6086 21.6896 38.7468 21.1189C37.885 20.5482 37.2089 19.7379 36.8017 18.7879C36.7292 18.6188 36.6806 18.4408 36.6569 18.2592C36.3546 17.3959 36.28 16.4666 36.4441 15.562C36.633 14.52 37.1298 13.5585 37.8703 12.8015L37.8857 12.7857L38.0058 12.6658C38.1917 12.48 38.34 12.2587 38.4407 12.0159C38.5413 11.7731 38.5931 11.5128 38.5931 11.25C38.5931 10.9872 38.5413 10.7269 38.4407 10.4841C38.34 10.2413 38.1925 10.0207 38.0066 9.835L38.005 9.83343C37.8193 9.64747 37.5987 9.49995 37.3559 9.39931C37.1131 9.29866 36.8528 9.24685 36.59 9.24685C36.3272 9.24685 36.0669 9.29866 35.8241 9.39931C35.5813 9.49996 35.3607 9.64748 35.175 9.83343L35.0386 9.96981C34.2816 10.7103 33.32 11.207 32.278 11.3959C31.2395 11.5842 30.1685 11.4582 29.2022 11.034C28.2565 10.6264 27.4499 9.95202 26.8811 9.09323C26.3104 8.23145 26.0041 7.22159 26 6.18798L26 6.18V6C26 5.46957 25.7893 4.96086 25.4142 4.58579C25.0391 4.21071 24.5304 4 24 4ZM19.7574 1.75736C20.8826 0.632141 22.4087 0 24 0C25.5913 0 27.1174 0.632141 28.2426 1.75736C29.3679 2.88258 30 4.4087 30 6V6.175C30.0016 6.42749 30.0767 6.67408 30.2161 6.88463C30.3561 7.09601 30.5548 7.26185 30.7879 7.36172L30.8076 7.37017C31.0452 7.47505 31.3088 7.50644 31.5644 7.4601C31.8171 7.41426 32.0506 7.29457 32.2354 7.11622L32.345 7.00657C32.9022 6.44871 33.564 6.00616 34.2924 5.70422C35.0207 5.40227 35.8015 5.24685 36.59 5.24685C37.3785 5.24685 38.1593 5.40227 38.8876 5.70422C39.616 6.00616 40.2778 6.44872 40.835 7.00657C41.3921 7.56348 41.8341 8.22465 42.1358 8.95236C42.4377 9.68074 42.5931 10.4615 42.5931 11.25C42.5931 12.0385 42.4377 12.8193 42.1358 13.5476C41.834 14.2757 41.3917 14.9371 40.8342 15.4942C40.834 15.4945 40.8345 15.4939 40.8342 15.4942L40.7238 15.6046C40.5454 15.7894 40.4257 16.0228 40.3799 16.2756C40.3336 16.5312 40.3648 16.7948 40.4697 17.0325C40.5262 17.1605 40.569 17.2938 40.5976 17.4301C40.6922 17.5696 40.8135 17.69 40.9554 17.7839C41.1659 17.9233 41.4125 17.9984 41.665 18H42C43.5913 18 45.1174 18.6321 46.2426 19.7574C47.3679 20.8826 48 22.4087 48 24C48 25.5913 47.3679 27.1174 46.2426 28.2426C45.1174 29.3679 43.5913 30 42 30H41.825C41.5725 30.0016 41.3259 30.0767 41.1154 30.2161C40.904 30.3561 40.7382 30.5548 40.6383 30.7879L40.6298 30.8076C40.525 31.0452 40.4936 31.3088 40.5399 31.5644C40.5857 31.8171 40.7054 32.0506 40.8837 32.2353L40.9934 32.345C40.9937 32.3453 40.9932 32.3447 40.9934 32.345C41.5509 32.9021 41.994 33.5643 42.2958 34.2924C42.5977 35.0207 42.7531 35.8015 42.7531 36.59C42.7531 37.3785 42.5977 38.1593 42.2958 38.8876C41.9938 39.616 41.5513 40.2778 40.9934 40.835L39.58 39.42L40.995 40.8334C40.4378 41.3913 39.776 41.8338 39.0476 42.1358C38.3193 42.4377 37.5385 42.5931 36.75 42.5931C35.9615 42.5931 35.1807 42.4377 34.4524 42.1358C33.7243 41.834 33.0629 41.3917 32.5058 40.8342C32.5055 40.834 32.506 40.8345 32.5058 40.8342L32.3953 40.7238C32.2106 40.5454 31.9771 40.4257 31.7244 40.3799C31.4688 40.3336 31.2052 40.3648 30.9675 40.4697L30.9479 40.4784C30.7149 40.5783 30.5161 40.744 30.3761 40.9554C30.2367 41.1659 30.1616 41.4125 30.16 41.665V42C30.16 43.5913 29.5279 45.1174 28.4026 46.2426C27.2774 47.3679 25.7513 48 24.16 48C22.5687 48 21.0426 47.3679 19.9174 46.2426C18.7921 45.1174 18.16 43.5913 18.16 42V41.8487C18.1505 41.5943 18.0665 41.3482 17.9183 41.1409C17.7665 40.9287 17.5545 40.7671 17.3096 40.6771C17.2701 40.6625 17.231 40.6467 17.1925 40.6297C16.9548 40.5248 16.6912 40.4936 16.4356 40.5399C16.1828 40.5857 15.9493 40.7055 15.7646 40.8838L15.655 40.9934C15.6547 40.9937 15.6553 40.9932 15.655 40.9934C15.0979 41.5509 14.4357 41.994 13.7076 42.2958C12.9793 42.5977 12.1985 42.7531 11.41 42.7531C10.6215 42.7531 9.84074 42.5977 9.11236 42.2958C8.38466 41.9941 7.72349 41.5521 7.16657 40.995C6.60871 40.4378 6.16616 39.776 5.86421 39.0476C5.56227 38.3193 5.40685 37.5385 5.40685 36.75C5.40685 35.9615 5.56227 35.1807 5.86421 34.4524C6.16616 33.724 6.60871 33.0622 7.16657 32.505L7.27622 32.3954C7.45457 32.2106 7.57426 31.9771 7.6201 31.7244C7.66644 31.4688 7.63515 31.2052 7.53027 30.9675L7.52161 30.9479C7.42174 30.7149 7.25601 30.5161 7.04463 30.3761C6.83408 30.2367 6.58749 30.1616 6.335 30.16H6C4.4087 30.16 2.88258 29.5279 1.75736 28.4026C0.632141 27.2774 0 25.7513 0 24.16C0 22.5687 0.632141 21.0426 1.75736 19.9174C2.88258 18.7921 4.4087 18.16 6 18.16H6.15128C6.40567 18.1505 6.65183 18.0665 6.8591 17.9183C7.07127 17.7665 7.23289 17.5545 7.32293 17.3096C7.33747 17.2701 7.35326 17.231 7.37027 17.1925C7.47515 16.9548 7.50644 16.6912 7.4601 16.4356C7.41426 16.1828 7.29456 15.9494 7.11619 15.7646L7.00657 15.655C6.44871 15.0978 6.00616 14.436 5.70422 13.7076C5.40227 12.9793 5.24685 12.1985 5.24685 11.41C5.24685 10.6215 5.40227 9.84075 5.70422 9.11236C6.00602 8.38431 6.4483 7.72286 7.00579 7.16579C7.56286 6.6083 8.22431 6.16602 8.95236 5.86421C9.68075 5.56227 10.4615 5.40685 11.25 5.40685C12.0385 5.40685 12.8193 5.56227 13.5476 5.86421C14.276 6.16616 14.9378 6.60871 15.495 7.16657L15.6046 7.27619C15.7894 7.45456 16.0228 7.57426 16.2756 7.6201C16.5312 7.66644 16.7948 7.63515 17.0325 7.53027C17.1605 7.47375 17.2939 7.43098 17.4301 7.40245C17.5696 7.30779 17.69 7.18647 17.7839 7.04463C17.9233 6.83408 17.9984 6.58749 18 6.335V6C18 4.4087 18.6321 2.88258 19.7574 1.75736Z" fill="#757575"/>
</svg>
