<svg width="24" height="24" viewBox="0 0 24 24" fill="none" xmlns="http://www.w3.org/2000/svg">
<path fill-rule="evenodd" clip-rule="evenodd" d="M9.15632 1.79169C9.29834 1.60773 9.5176 1.5 9.75 1.5C11.5942 1.5 14.0337 2.79124 15.9776 5.04087C17.9535 7.32741 19.5 10.6872 19.5 15C19.5 16.9891 18.7098 18.8968 17.3033 20.3033C15.8968 21.7098 13.9891 22.5 12 22.5C10.0109 22.5 8.10322 21.7098 6.6967 20.3033C5.29018 18.8968 4.5 16.9891 4.5 15C4.5 13.7413 4.92 12.5894 5.47238 11.5278C5.89092 10.7235 6.41284 9.92361 6.91457 9.15469C7.06614 8.9224 7.21587 8.69293 7.36035 8.46701C8.6498 6.45079 9.59128 4.60604 9.02443 2.43987C8.9656 2.21504 9.01431 1.97565 9.15632 1.79169ZM10.6659 3.13665C10.8845 5.50951 9.74673 7.51968 8.62402 9.27518C8.4618 9.52883 8.3005 9.77614 8.14201 10.0191C7.64951 10.7743 7.18419 11.4877 6.80301 12.2202C6.30657 13.1743 6 14.079 6 15C6 16.5913 6.63214 18.1174 7.75736 19.2426C8.88258 20.3679 10.4087 21 12 21C13.5913 21 15.1174 20.3679 16.2426 19.2426C17.3679 18.1174 18 16.5913 18 15C18 11.0628 16.5934 8.04759 14.8427 6.02163C13.4465 4.40595 11.8799 3.46757 10.6659 3.13665Z" fill="#6C6C6C"/>
<path fill-rule="evenodd" clip-rule="evenodd" d="M9.92218 10.7719C10.0647 10.5997 10.2765 10.5 10.5 10.5C11.1955 10.5 11.8696 10.7868 12.4567 11.1878C13.0508 11.5935 13.6085 12.1513 14.0864 12.7831C15.0318 14.0328 15.75 15.6879 15.75 17.25C15.75 18.7404 15.3345 19.88 14.6094 20.6527C13.8842 21.4254 12.9245 21.75 12 21.75C11.0755 21.75 10.1158 21.4254 9.39062 20.6527C8.66546 19.88 8.25 18.7404 8.25 17.25C8.25 15.7416 8.77103 14.6112 9.18759 13.7074C9.1949 13.6916 9.20219 13.6758 9.20943 13.66C9.64631 12.7117 9.89915 12.1038 9.76325 11.3903C9.72143 11.1708 9.7797 10.944 9.92218 10.7719ZM11.2708 12.2218C11.1778 12.9734 10.8717 13.6373 10.5979 14.231C10.5892 14.25 10.5805 14.2688 10.5718 14.2877C10.148 15.2076 9.75 16.0797 9.75 17.25C9.75 18.4648 10.0845 19.2001 10.4844 19.6262C10.8842 20.0522 11.4245 20.25 12 20.25C12.5755 20.25 13.1158 20.0522 13.5156 19.6262C13.9155 19.2001 14.25 18.4648 14.25 17.25C14.25 16.1069 13.7026 14.762 12.8901 13.688C12.4892 13.158 12.0449 12.723 11.6107 12.4264C11.4929 12.346 11.3794 12.2781 11.2708 12.2218Z" fill="#FF8A5B"/>
</svg>
