<svg width="104" height="85" viewBox="0 0 104 85" fill="none" xmlns="http://www.w3.org/2000/svg">
<g clip-path="url(#clip0_51_130)">
<path d="M86.2413 32.4004L81.3657 37.1411L75.2064 35.5223L73.6064 29.8211L78.0428 25.5074L84.794 27.297L85.5048 24.7611L78.7415 22.9676L76.9536 16.595L74.3469 17.2861L76.132 23.6482L71.697 27.9606L65.689 26.3681L64.108 20.7326L69.0984 15.8789L67.1876 14.0209L62.1972 18.8733L55.4446 17.0837L54.7338 19.6197L61.4958 21.4132L63.0769 27.0513L58.604 31.4005L52.8366 29.8855L50.969 23.2764L48.3637 23.9728L50.1596 30.3204L45.1583 35.1833L47.0691 37.0412L51.8879 32.3544L58.127 33.9942L59.6932 39.5325L55.1811 43.9198L48.538 42.1735L47.8326 44.7107L54.5717 46.4819L56.4162 53.0057L59.0216 52.3093L57.1567 45.7146L61.5148 41.4758L67.4525 43.0368L69.1119 48.9535L64.2377 53.6929L66.1485 55.5508L71.1254 50.7115L77.8928 52.4906L78.5982 49.9534L71.6835 48.1362L70.1051 42.5099L74.6442 38.0963L80.5049 39.6363L82.3711 46.2888L84.9778 45.5977L83.1576 39.1094L88.148 34.257L86.2413 32.4004ZM68.3119 40.5416L62.3377 38.9714L60.6769 33.1007L64.989 28.9066L70.9943 30.4991L72.6321 36.3383L68.3119 40.5416Z" fill="#21B54D"/>
<path d="M72.2483 55.0292C79.7103 53.0858 85.5372 47.4188 87.5372 40.1632C88.0331 38.3657 88.2737 36.5367 88.2737 34.7235C88.2737 29.2207 86.048 23.8519 81.94 19.8575C77.8333 15.8631 72.3118 13.699 66.6511 13.699C64.7863 13.699 62.9052 13.9342 61.0566 14.4164C53.5959 16.3598 47.7677 22.0268 45.7677 29.2811C45.2731 31.0786 45.0312 32.9076 45.0312 34.7208C45.0312 40.2236 47.2569 45.5924 51.3649 49.5868C55.4729 53.5812 60.9945 55.7453 66.6538 55.7453C68.52 55.7466 70.3997 55.5114 72.2483 55.0292ZM47.7339 34.7208C47.7339 33.1336 47.9447 31.5345 48.3785 29.9604C50.1284 23.6128 55.227 18.6539 61.7552 16.9537C63.3755 16.5319 65.02 16.3269 66.6511 16.3269C71.6037 16.3269 76.4347 18.2203 80.0292 21.7154C83.6237 25.2105 85.571 29.9092 85.571 34.7235C85.571 36.3107 85.3602 37.9098 84.9264 39.4839C83.1765 45.8316 78.0779 50.7904 71.5483 52.4906C69.9294 52.9124 68.2849 53.1174 66.6525 53.1174C61.6998 53.1174 56.8689 51.224 53.2743 47.7289C49.6812 44.2351 47.7339 39.5364 47.7339 34.7208Z" fill="#21B54D"/>
</g>
<path d="M12.3594 51.5728L36.2656 34.6505" stroke="#21B54D" stroke-width="3" stroke-linecap="round"/>
<path d="M5.98438 56.4078L8.375 54.7961" stroke="#037826" stroke-width="3" stroke-linecap="round"/>
<path d="M29.8906 78.165L53.7969 61.2427" stroke="#21B54D" stroke-width="3" stroke-linecap="round"/>
<path d="M23.5156 83L25.9063 81.3883" stroke="#037826" stroke-width="3" stroke-linecap="round"/>
<path d="M21.4186 74.6731L43.4375 59.631" stroke="#21B54D" stroke-width="3" stroke-linecap="round"/>
<path d="M15.5469 78.9709L17.7488 77.5383" stroke="#037826" stroke-width="3" stroke-linecap="round"/>
<path d="M10.2623 60.1683L32.2812 45.1262" stroke="#21B54D" stroke-width="3" stroke-linecap="round"/>
<path d="M4.39062 64.466L6.59252 63.0334" stroke="#037826" stroke-width="3" stroke-linecap="round"/>
<path d="M2 77.3593L35.4687 53.9903" stroke="#21B54D" stroke-width="3" stroke-linecap="round"/>
<defs>
<clipPath id="clip0_51_130">
<rect width="58.9688" height="59.6311" fill="white" transform="translate(45.0312)"/>
</clipPath>
</defs>
</svg>
