<svg width="335" height="105" viewBox="0 0 335 105" fill="none" xmlns="http://www.w3.org/2000/svg">
<path d="M141.489 62.6667L140.089 60.9778C139.304 61.437 138.459 61.7852 137.556 62.0222C136.667 62.2741 135.741 62.4 134.778 62.4C133.326 62.4 131.963 62.1333 130.689 61.6C129.415 61.0519 128.289 60.3037 127.311 59.3556C126.348 58.4074 125.593 57.3037 125.044 56.0444C124.511 54.7852 124.244 53.437 124.244 52C124.244 50.563 124.511 49.2148 125.044 47.9556C125.593 46.6963 126.348 45.5926 127.311 44.6444C128.289 43.6963 129.415 42.9556 130.689 42.4222C131.963 41.8741 133.326 41.6 134.778 41.6C136.244 41.6 137.607 41.8741 138.867 42.4222C140.141 42.9556 141.259 43.6963 142.222 44.6444C143.2 45.5926 143.956 46.6963 144.489 47.9556C145.037 49.2148 145.311 50.563 145.311 52C145.311 53.363 145.067 54.6444 144.578 55.8444C144.089 57.0444 143.407 58.1111 142.533 59.0444L145.556 62.6667H141.489ZM134.778 58.9111C135.844 58.9111 136.844 58.6741 137.778 58.2L132.622 52H136.689L140.178 56.1778C140.607 55.6 140.941 54.9556 141.178 54.2444C141.415 53.5333 141.533 52.7852 141.533 52C141.533 50.7111 141.23 49.5481 140.622 48.5111C140.03 47.4741 139.222 46.6444 138.2 46.0222C137.193 45.4 136.052 45.0889 134.778 45.0889C133.504 45.0889 132.356 45.4 131.333 46.0222C130.311 46.6444 129.504 47.4741 128.911 48.5111C128.319 49.5481 128.022 50.7111 128.022 52C128.022 53.2741 128.319 54.437 128.911 55.4889C129.504 56.5259 130.311 57.3556 131.333 57.9778C132.356 58.6 133.504 58.9111 134.778 58.9111ZM157.82 62.4C156.887 62.4 156.005 62.1704 155.176 61.7111C154.346 61.2519 153.68 60.5926 153.176 59.7333C152.672 58.8593 152.42 57.8 152.42 56.5556V48.6667H155.909V56.0889C155.909 56.9185 156.154 57.6519 156.642 58.2889C157.146 58.9259 157.842 59.2444 158.731 59.2444C159.472 59.2444 160.131 58.9778 160.709 58.4444C161.287 57.9111 161.576 57.1481 161.576 56.1556V48.6667H165.065V62H161.887V60.4C161.413 61.0519 160.82 61.5481 160.109 61.8889C159.398 62.2296 158.635 62.4 157.82 62.4ZM178.734 62.3111C177.519 62.3111 176.408 62 175.401 61.3778C174.394 60.7407 173.586 59.8963 172.979 58.8444C172.386 57.7778 172.09 56.6074 172.09 55.3333C172.09 54.0593 172.386 52.8963 172.979 51.8444C173.586 50.7778 174.394 49.9333 175.401 49.3111C176.408 48.6741 177.519 48.3556 178.734 48.3556C179.608 48.3556 180.416 48.5111 181.157 48.8222C181.897 49.1333 182.527 49.5704 183.045 50.1333V48.6667H186.09V62H183.045V60.5333C182.527 61.0815 181.897 61.5185 181.157 61.8444C180.416 62.1556 179.608 62.3111 178.734 62.3111ZM179.157 59.2222C179.868 59.2222 180.505 59.0444 181.068 58.6889C181.645 58.3333 182.105 57.8667 182.445 57.2889C182.786 56.6963 182.957 56.0444 182.957 55.3333C182.957 54.6222 182.786 53.9778 182.445 53.4C182.105 52.8074 181.645 52.3333 181.068 51.9778C180.505 51.6222 179.875 51.4444 179.179 51.4444C178.468 51.4444 177.823 51.6222 177.245 51.9778C176.682 52.3333 176.231 52.8074 175.89 53.4C175.549 53.9778 175.379 54.6222 175.379 55.3333C175.379 56.0444 175.549 56.6963 175.89 57.2889C176.231 57.8667 176.682 58.3333 177.245 58.6889C177.823 59.0444 178.46 59.2222 179.157 59.2222ZM199.799 62.3111C198.569 62.3111 197.451 62 196.443 61.3778C195.436 60.7407 194.629 59.8963 194.021 58.8444C193.429 57.7778 193.132 56.6074 193.132 55.3333C193.132 54.0593 193.429 52.8963 194.021 51.8444C194.629 50.7778 195.436 49.9333 196.443 49.3111C197.451 48.6741 198.569 48.3556 199.799 48.3556C200.555 48.3556 201.251 48.4741 201.888 48.7111C202.54 48.9481 203.125 49.2741 203.643 49.6889V40.6667H207.132V62H204.088V60.5778C203.569 61.1111 202.94 61.5333 202.199 61.8444C201.458 62.1556 200.658 62.3111 199.799 62.3111ZM200.199 59.2222C200.91 59.2222 201.547 59.0444 202.11 58.6889C202.688 58.3333 203.147 57.8667 203.488 57.2889C203.829 56.6963 203.999 56.0444 203.999 55.3333C203.999 54.6222 203.829 53.9778 203.488 53.4C203.147 52.8074 202.688 52.3333 202.11 51.9778C201.547 51.6222 200.918 51.4444 200.221 51.4444C199.51 51.4444 198.866 51.6222 198.288 51.9778C197.725 52.3333 197.273 52.8074 196.932 53.4C196.592 53.9778 196.421 54.6222 196.421 55.3333C196.421 56.0444 196.592 56.6963 196.932 57.2889C197.273 57.8667 197.725 58.3333 198.288 58.6889C198.866 59.0444 199.503 59.2222 200.199 59.2222ZM214.908 62V48.6667H218.042V51C218.516 50.2296 219.108 49.6296 219.819 49.2C220.545 48.7556 221.404 48.5333 222.397 48.5333L223.175 51.6889C222.893 51.6 222.575 51.5556 222.219 51.5556C221.064 51.5556 220.138 51.9259 219.442 52.6667C218.745 53.4074 218.397 54.4593 218.397 55.8222V62H214.908ZM235.018 62.3111C233.803 62.3111 232.692 62 231.685 61.3778C230.677 60.7407 229.87 59.8963 229.263 58.8444C228.67 57.7778 228.374 56.6074 228.374 55.3333C228.374 54.0593 228.67 52.8963 229.263 51.8444C229.87 50.7778 230.677 49.9333 231.685 49.3111C232.692 48.6741 233.803 48.3556 235.018 48.3556C235.892 48.3556 236.7 48.5111 237.44 48.8222C238.181 49.1333 238.811 49.5704 239.329 50.1333V48.6667H242.374V62H239.329V60.5333C238.811 61.0815 238.181 61.5185 237.44 61.8444C236.7 62.1556 235.892 62.3111 235.018 62.3111ZM235.44 59.2222C236.151 59.2222 236.788 59.0444 237.351 58.6889C237.929 58.3333 238.388 57.8667 238.729 57.2889C239.07 56.6963 239.24 56.0444 239.24 55.3333C239.24 54.6222 239.07 53.9778 238.729 53.4C238.388 52.8074 237.929 52.3333 237.351 51.9778C236.788 51.6222 236.159 51.4444 235.463 51.4444C234.751 51.4444 234.107 51.6222 233.529 51.9778C232.966 52.3333 232.514 52.8074 232.174 53.4C231.833 53.9778 231.663 54.6222 231.663 55.3333C231.663 56.0444 231.833 56.6963 232.174 57.2889C232.514 57.8667 232.966 58.3333 233.529 58.6889C234.107 59.0444 234.744 59.2222 235.44 59.2222Z" fill="#F9B59B"/>
<path d="M261.952 62V42H272.397V45.0667H265.463V48.5333H271.73V51.6H265.463V62H261.952ZM283.896 62.3111C282.681 62.3111 281.57 62 280.562 61.3778C279.555 60.7407 278.747 59.8963 278.14 58.8444C277.547 57.7778 277.251 56.6074 277.251 55.3333C277.251 54.0593 277.547 52.8963 278.14 51.8444C278.747 50.7778 279.555 49.9333 280.562 49.3111C281.57 48.6741 282.681 48.3556 283.896 48.3556C284.77 48.3556 285.577 48.5111 286.318 48.8222C287.059 49.1333 287.688 49.5704 288.207 50.1333V48.6667H291.251V62H288.207V60.5333C287.688 61.0815 287.059 61.5185 286.318 61.8444C285.577 62.1556 284.77 62.3111 283.896 62.3111ZM284.318 59.2222C285.029 59.2222 285.666 59.0444 286.229 58.6889C286.807 58.3333 287.266 57.8667 287.607 57.2889C287.947 56.6963 288.118 56.0444 288.118 55.3333C288.118 54.6222 287.947 53.9778 287.607 53.4C287.266 52.8074 286.807 52.3333 286.229 51.9778C285.666 51.6222 285.036 51.4444 284.34 51.4444C283.629 51.4444 282.984 51.6222 282.407 51.9778C281.844 52.3333 281.392 52.8074 281.051 53.4C280.71 53.9778 280.54 54.6222 280.54 55.3333C280.54 56.0444 280.71 56.6963 281.051 57.2889C281.392 57.8667 281.844 58.3333 282.407 58.6889C282.984 59.0444 283.621 59.2222 284.318 59.2222ZM282.918 46.8667L284.962 42.4667H288.807L285.696 46.8667H282.918ZM305.449 62.4C304.131 62.4 302.923 62.0815 301.827 61.4444C300.745 60.8074 299.886 59.9556 299.249 58.8889C298.612 57.8074 298.294 56.6222 298.294 55.3333C298.294 54.0296 298.612 52.8444 299.249 51.7778C299.886 50.7111 300.745 49.8593 301.827 49.2222C302.923 48.5852 304.131 48.2667 305.449 48.2667C306.383 48.2667 307.264 48.4222 308.094 48.7333C308.923 49.0444 309.657 49.4963 310.294 50.0889L309.36 53.7778C308.99 53.1407 308.479 52.5926 307.827 52.1333C307.175 51.6593 306.42 51.4222 305.56 51.4222C304.82 51.4222 304.153 51.6 303.56 51.9556C302.983 52.3111 302.523 52.7852 302.183 53.3778C301.842 53.9556 301.671 54.6074 301.671 55.3333C301.671 56.0444 301.842 56.6963 302.183 57.2889C302.523 57.8815 302.983 58.3556 303.56 58.7111C304.153 59.0667 304.82 59.2444 305.56 59.2444C306.42 59.2444 307.175 59.0148 307.827 58.5556C308.479 58.0815 308.99 57.5259 309.36 56.8889L310.294 60.5778C309.657 61.1704 308.923 61.6222 308.094 61.9333C307.264 62.2444 306.383 62.4 305.449 62.4ZM317.029 62V48.6667H320.518V62H317.029ZM318.785 46.6222C318.237 46.6222 317.77 46.437 317.385 46.0667C317.014 45.6815 316.829 45.2148 316.829 44.6667C316.829 44.1037 317.014 43.637 317.385 43.2667C317.77 42.8963 318.237 42.7111 318.785 42.7111C319.348 42.7111 319.814 42.8963 320.185 43.2667C320.555 43.637 320.74 44.1037 320.74 44.6667C320.74 45.2148 320.555 45.6815 320.185 46.0667C319.814 46.437 319.348 46.6222 318.785 46.6222ZM328.322 62V40.6667H331.811V62H328.322Z" fill="#757575"/>
<ellipse cx="86.3334" cy="47.3206" rx="25.6667" ry="24.6795" fill="#F9B59B"/>
<path d="M107.715 40.2077L101.596 46.0907L93.8669 44.0819L91.8591 37.0069L97.4264 31.6538L105.898 33.8746L106.79 30.7276L98.3031 28.5019L96.0596 20.5937L92.7884 21.4514L95.0285 29.3465L89.463 34.698L81.9235 32.7218L79.9395 25.7283L86.202 19.705L83.8042 17.3994L77.5416 23.4211L69.0678 21.2002L68.1758 24.3472L76.6615 26.5729L78.6456 33.5697L73.0326 38.9668L65.795 37.0868L63.4514 28.8851L60.1819 29.7493L62.4356 37.6265L56.1595 43.6612L58.5574 45.9668L64.6045 40.1506L72.4339 42.1855L74.3994 49.0583L68.7371 54.5028L60.4007 52.3357L59.5155 55.4844L67.9724 57.6824L70.2871 65.7781L73.5566 64.9139L71.2164 56.7301L76.6853 51.4699L84.1365 53.407L86.2189 60.7494L80.1023 66.6309L82.5001 68.9365L88.7457 62.9311L97.2381 65.1389L98.1233 61.9903L89.446 59.7352L87.4653 52.7532L93.1615 47.2761L100.516 49.1871L102.858 57.4427L106.129 56.585L103.845 48.5333L110.107 42.5116L107.715 40.2077ZM85.215 50.3106L77.718 48.3621L75.6339 41.0767L81.0451 35.872L88.5812 37.8482L90.6365 45.0944L85.215 50.3106Z" fill="#757575"/>
<path d="M90.1547 68.2892C99.5188 65.8776 106.831 58.845 109.341 49.8411C109.963 47.6105 110.265 45.3407 110.265 43.0906C110.265 36.2618 107.472 29.5993 102.317 24.6424C97.1634 19.6855 90.2344 17 83.1308 17C80.7906 17 78.4301 17.2919 76.1103 17.8903C66.7479 20.3019 59.434 27.3345 56.9242 36.3368C56.3035 38.5674 56 40.8371 56 43.0873C56 49.9161 58.793 56.5785 63.9481 61.5354C69.1033 66.4923 76.0323 69.1779 83.1342 69.1779C85.4761 69.1795 87.8349 68.8876 90.1547 68.2892ZM59.3916 43.0873C59.3916 41.1176 59.6561 39.1332 60.2004 37.1798C62.3965 29.3026 68.7947 23.1488 76.987 21.0389C79.0202 20.5155 81.084 20.2611 83.1308 20.2611C89.3458 20.2611 95.4082 22.6107 99.919 26.948C104.43 31.2853 106.873 37.1162 106.873 43.0906C106.873 45.0603 106.609 47.0447 106.065 48.9981C103.868 56.8753 97.4703 63.029 89.2763 65.139C87.2448 65.6624 85.181 65.9167 83.1325 65.9167C76.9175 65.9167 70.855 63.5671 66.3443 59.2298C61.8352 54.8942 59.3916 49.0633 59.3916 43.0873Z" fill="#757575"/>
<path d="M15 64L45 43" stroke="#757575" stroke-width="3" stroke-linecap="round"/>
<path d="M7 70L10 68" stroke="#F9B59B" stroke-width="3" stroke-linecap="round"/>
<path d="M37 97L67 76" stroke="#757575" stroke-width="3" stroke-linecap="round"/>
<path d="M29 103L32 101" stroke="#F9B59B" stroke-width="3" stroke-linecap="round"/>
<path d="M26.3684 92.6666L54 74" stroke="#757575" stroke-width="3" stroke-linecap="round"/>
<path d="M19 98L21.7632 96.2222" stroke="#F9B59B" stroke-width="3" stroke-linecap="round"/>
<path d="M12.3684 74.6666L40 56" stroke="#757575" stroke-width="3" stroke-linecap="round"/>
<path d="M5 80L7.76316 78.2222" stroke="#F9B59B" stroke-width="3" stroke-linecap="round"/>
<path d="M2 96L44 67" stroke="#757575" stroke-width="3" stroke-linecap="round"/>
</svg>
