<svg width="52" height="50" viewBox="0 0 52 50" fill="none" xmlns="http://www.w3.org/2000/svg">
<path d="M4.33329 43.75H47.6666C48.2413 43.75 48.7924 43.5305 49.1987 43.1398C49.605 42.7491 49.8333 42.2192 49.8333 41.6667V8.33333C49.8333 7.7808 49.605 7.25089 49.1987 6.86019C48.7924 6.46949 48.2413 6.25 47.6666 6.25H4.33329C3.75866 6.25 3.20756 6.46949 2.80123 6.86019C2.3949 7.25089 2.16663 7.7808 2.16663 8.33333V41.6667C2.16663 42.2192 2.3949 42.7491 2.80123 43.1398C3.20756 43.5305 3.75866 43.75 4.33329 43.75ZM45.5 29.1667H41.1666V20.8333H45.5V29.1667ZM28.1666 10.4167H45.5V16.6667H39C38.4253 16.6667 37.8742 16.8862 37.4679 17.2769C37.0616 17.6676 36.8333 18.1975 36.8333 18.75V31.25C36.8333 31.8025 37.0616 32.3324 37.4679 32.7231C37.8742 33.1138 38.4253 33.3333 39 33.3333H45.5V39.5833H28.1666V33.0375C30.0247 32.5828 31.6723 31.5457 32.849 30.0902C34.0258 28.6346 34.6646 26.8436 34.6646 25C34.6646 23.1564 34.0258 21.3654 32.849 19.9098C31.6723 18.4543 30.0247 17.4172 28.1666 16.9625V10.4167ZM30.3333 25C30.3333 25.8241 30.0791 26.6297 29.603 27.3149C29.1268 28.0001 28.4501 28.5341 27.6582 28.8495C26.8664 29.1649 25.9951 29.2474 25.1546 29.0866C24.314 28.9258 23.5419 28.529 22.9358 27.9463C22.3298 27.3636 21.9171 26.6211 21.7499 25.8129C21.5827 25.0046 21.6685 24.1668 21.9965 23.4055C22.3245 22.6441 22.8799 21.9934 23.5925 21.5355C24.3051 21.0777 25.1429 20.8333 26 20.8333C27.1492 20.8333 28.2514 21.2723 29.0641 22.0537C29.8767 22.8351 30.3333 23.8949 30.3333 25ZM6.49996 20.8333H10.8333V29.1667H6.49996V20.8333ZM6.49996 33.3333H13C13.5746 33.3333 14.1257 33.1138 14.532 32.7231C14.9384 32.3324 15.1666 31.8025 15.1666 31.25V18.75C15.1666 18.1975 14.9384 17.6676 14.532 17.2769C14.1257 16.8862 13.5746 16.6667 13 16.6667H6.49996V10.4167H23.8333V16.9625C21.9752 17.4172 20.3276 18.4543 19.1509 19.9098C17.9741 21.3654 17.3353 23.1564 17.3353 25C17.3353 26.8436 17.9741 28.6346 19.1509 30.0902C20.3276 31.5457 21.9752 32.5828 23.8333 33.0375V39.5833H6.49996V33.3333Z" fill="#757575"/>
<circle cx="26" cy="25" r="5" fill="#FF8A5B"/>
</svg>
