<svg width="49" height="34" viewBox="0 0 49 34" fill="none" xmlns="http://www.w3.org/2000/svg">
<path fill-rule="evenodd" clip-rule="evenodd" d="M21.2816 19.8895C22.0195 24.225 22.9159 28.7531 23.4116 29.6846C24.1149 31.0042 25.7608 31.516 27.0867 30.8145C28.4097 30.113 28.9169 28.4656 28.2136 27.146C27.7179 26.2145 24.4637 22.9341 21.2816 19.8895ZM20.1632 14.8899C21.7341 16.3389 29.6289 23.6673 30.7616 25.8005C32.2086 28.5203 31.1652 31.907 28.4356 33.3531C27.6026 33.793 26.7062 34 25.8242 34C23.8152 34 21.8696 32.9219 20.8637 31.033C19.7309 28.8998 18.0793 18.2709 17.7594 16.1606C17.67 15.5569 17.9698 14.9589 18.5088 14.6771C19.0535 14.3896 19.7107 14.473 20.1632 14.8899ZM24.5 0C38.0096 0 49 10.9652 49 24.4375C49 26.4011 48.7723 28.336 48.3198 30.1875L48.0546 31.2858H34.6718V28.4107H45.7545C45.9966 27.1199 46.1177 25.7859 46.1177 24.4375C46.1177 12.5465 36.4185 2.87497 24.5 2.87497C12.5786 2.87497 2.88237 12.5465 2.88237 24.4375C2.88237 25.7859 3.00344 27.1199 3.24268 28.4107H15.6829V31.2858H0.94256L0.677399 30.1875C0.227697 28.336 0 26.4011 0 24.4375C0 10.9652 10.9904 0 24.5 0ZM38.3463 9.9452L40.3841 11.9778L37.5075 14.8471L35.4697 12.8144L38.3463 9.9452ZM10.6515 9.9452L13.528 12.8144L11.4902 14.8471L8.61368 11.9778L10.6515 9.9452ZM25.94 4.81936V8.87886H23.0577V4.81933L25.94 4.81936Z" fill="#757575"/>
<rect x="8" y="11.8876" width="4" height="5" transform="rotate(-46.2105 8 11.8876)" fill="#FF8A5B"/>
<rect x="8" y="11.8876" width="4" height="5" transform="rotate(-46.2105 8 11.8876)" fill="#FF8A5B"/>
<rect x="8" y="11.8876" width="4" height="5" transform="rotate(-46.2105 8 11.8876)" fill="#FF8A5B"/>
<rect x="8" y="11.8876" width="4" height="5" transform="rotate(-46.2105 8 11.8876)" fill="#FF8A5B"/>
<rect x="23.0688" y="4" width="4" height="5" transform="rotate(0.789285 23.0688 4)" fill="#FF8A5B"/>
<rect x="23.0688" y="4" width="4" height="5" transform="rotate(0.789285 23.0688 4)" fill="#FF8A5B"/>
<rect x="23.0688" y="4" width="4" height="5" transform="rotate(0.789285 23.0688 4)" fill="#FF8A5B"/>
<rect x="23.0688" y="4" width="4" height="5" transform="rotate(0.789285 23.0688 4)" fill="#FF8A5B"/>
<rect x="38.6851" y="9" width="3.65571" height="5" transform="rotate(47.4784 38.6851 9)" fill="#FF8A5B"/>
<rect x="38.6851" y="9" width="3.65571" height="5" transform="rotate(47.4784 38.6851 9)" fill="#FF8A5B"/>
<rect x="38.6851" y="9" width="3.65571" height="5" transform="rotate(47.4784 38.6851 9)" fill="#FF8A5B"/>
<rect x="38.6851" y="9" width="3.65571" height="5" transform="rotate(47.4784 38.6851 9)" fill="#FF8A5B"/>
</svg>
