<svg width="50" height="50" viewBox="0 0 50 50" fill="none" xmlns="http://www.w3.org/2000/svg">
<path d="M25 24.6875C19.6875 24.6875 15 20.3125 15 14.6875C15 9.0625 19.375 5 25 5C30.3125 5 35 9.375 35 15C35 20.625 30.3125 24.6875 25 24.6875ZM25 7.1875C20.9375 7.1875 17.5 10.625 17.5 14.6875C17.5 18.75 20.625 22.1875 25 22.1875C29.375 22.1875 32.5 18.75 32.5 14.6875C32.5 10.625 29.0625 7.1875 25 7.1875Z" fill="#757575"/>
<path d="M40.625 43.4375H7.1875V42.1875C7.1875 31.25 15 22.5 24.375 22.5C33.75 22.5 41.5625 31.25 41.5625 41.875V43.125L40.625 43.4375ZM9.6875 40.9375H39.375C39.0625 32.1875 32.5 25 24.6875 25C16.5625 25 10.3125 32.1875 9.6875 40.9375ZM34.6875 24.375C34.0625 24.375 33.4375 23.75 33.4375 23.125C33.4375 22.5 34.0625 21.875 34.6875 21.875C37.8125 21.875 40.625 19.375 40.625 15.9375C40.625 13.4375 39.0625 11.25 36.5625 10.3125C35.9375 9.99998 35.625 9.37498 35.9375 8.74998C36.25 8.12498 36.875 7.81248 37.5 8.12498C40.9375 9.06248 43.125 12.1875 43.125 15.9375C42.8125 20.625 39.0625 24.375 34.6875 24.375Z" fill="#757575"/>
<path d="M47.1875 39.375H44.375C43.75 39.375 43.125 38.75 43.125 38.125C43.125 37.5 43.75 36.875 44.375 36.875H45.9375C45.3125 30 40.3125 24.6875 34.375 24.6875C33.75 24.6875 33.125 24.0625 33.125 23.4375C33.125 22.8125 33.75 22.1875 34.375 22.1875C42.1875 22.1875 48.4375 29.375 48.4375 38.125V39.375H47.1875Z" fill="#757575"/>
<path d="M14.6875 24.375C14.375 24.375 14.375 24.375 14.6875 24.375C12.5 24.375 10.3125 23.75 8.75 22.1875C7.1875 20.625 6.5625 18.4375 6.5625 16.25C6.5625 12.8125 8.75 9.68748 12.1875 8.43748C12.8125 8.12498 13.4375 8.43748 13.75 9.06248C14.0625 9.68748 13.75 10.3125 13.125 10.625C10.3125 11.5625 8.75 13.75 8.75 16.25C8.75 17.8125 9.375 19.375 10.3125 20.3125C11.25 21.5625 12.8125 21.875 14.375 22.1875C15.3125 22.1875 15.625 22.8125 15.625 23.4375C15.625 24.0625 15.3125 24.375 14.6875 24.375Z" fill="#FF8A5B"/>
<path d="M4.375 39.375H0.625V38.125C0.625 29.375 6.875 22.5 14.6875 22.5C15.3125 22.5 15.9375 23.125 15.9375 23.75C15.9375 24.375 15.3125 25 14.6875 25C8.75 25 3.75 30.3125 3.125 37.1875H4.6875C5.3125 37.1875 5.9375 37.8125 5.9375 38.4375C5.625 38.75 5.3125 39.375 4.375 39.375Z" fill="#FF8A5B"/>
</svg>
