<svg width="50" height="50" viewBox="0 0 50 50" fill="none" xmlns="http://www.w3.org/2000/svg">
<path d="M33.3333 35.4167V41.6667C33.3333 42.2192 33.1138 42.7491 32.7231 43.1398C32.3324 43.5305 31.8025 43.75 31.25 43.75H8.33333C7.7808 43.75 7.25089 43.5305 6.86019 43.1398C6.46949 42.7491 6.25 42.2192 6.25 41.6667V8.33333C6.25 7.7808 6.46949 7.25089 6.86019 6.86019C7.25089 6.46949 7.7808 6.25 8.33333 6.25H31.25C31.8025 6.25 32.3324 6.46949 32.7231 6.86019C33.1138 7.25089 33.3333 7.7808 33.3333 8.33333V14.5833" stroke="#757575" stroke-width="4" stroke-linecap="round" stroke-linejoin="round"/>
<path d="M22.9166 25C22.9166 27.0602 23.5276 29.0742 24.6722 30.7872C25.8167 32.5002 27.4436 33.8353 29.347 34.6237C31.2504 35.4121 33.3448 35.6184 35.3655 35.2165C37.3861 34.8146 39.2422 33.8225 40.699 32.3657C42.1558 30.9089 43.1479 29.0528 43.5498 27.0322C43.9517 25.0115 43.7455 22.9171 42.957 21.0137C42.1686 19.1103 40.8335 17.4834 39.1205 16.3388C37.4075 15.1942 35.3935 14.5833 33.3333 14.5833M22.9166 25C22.9166 22.2373 24.0141 19.5878 25.9676 17.6343C27.9211 15.6808 30.5706 14.5833 33.3333 14.5833M22.9166 25H33.3333V14.5833" stroke="#FF8A5B" stroke-width="4" stroke-linecap="round" stroke-linejoin="round"/>
</svg>
