<svg width="50" height="50" viewBox="0 0 50 50" fill="none" xmlns="http://www.w3.org/2000/svg">
<mask id="path-1-inside-1_84_41" fill="white">
<path d="M30 9.5C30 8.04131 29.4205 6.64236 28.3891 5.61091C27.3576 4.57946 25.9587 4 24.5 4C23.0413 4 21.6424 4.57946 20.6109 5.61091C19.5795 6.64236 19 8.04131 19 9.5L22.0649 9.5C22.0649 8.85418 22.3215 8.23481 22.7781 7.77815C23.2348 7.32148 23.8542 7.06493 24.5 7.06493C25.1458 7.06493 25.7652 7.32149 26.2219 7.77815C26.6785 8.23481 26.9351 8.85418 26.9351 9.5H30Z"/>
</mask>
<path d="M30 9.5C30 8.04131 29.4205 6.64236 28.3891 5.61091C27.3576 4.57946 25.9587 4 24.5 4C23.0413 4 21.6424 4.57946 20.6109 5.61091C19.5795 6.64236 19 8.04131 19 9.5L22.0649 9.5C22.0649 8.85418 22.3215 8.23481 22.7781 7.77815C23.2348 7.32148 23.8542 7.06493 24.5 7.06493C25.1458 7.06493 25.7652 7.32149 26.2219 7.77815C26.6785 8.23481 26.9351 8.85418 26.9351 9.5H30Z" stroke="#FF8A5B" stroke-width="7" mask="url(#path-1-inside-1_84_41)"/>
<path d="M39.5223 45.8334H10.3556C4.10559 45.8334 4.10559 43.0209 4.10559 39.5834V37.5C4.10559 36.3542 5.04309 35.4167 6.18892 35.4167H43.6889C44.8348 35.4167 45.7723 36.3542 45.7723 37.5V39.5834C45.7723 43.0209 45.7723 45.8334 39.5223 45.8334Z" stroke="#757575" stroke-width="4" stroke-linecap="round" stroke-linejoin="round"/>
<path d="M43.1656 27.0834V35.4167H6.81152V27.0834C6.81152 19.0834 12.4574 12.3959 19.9782 10.7917C21.1031 10.5417 22.2698 10.4167 23.4781 10.4167H26.499C27.7073 10.4167 28.8948 10.5417 30.0198 10.7917C37.5406 12.4167 43.1656 19.0834 43.1656 27.0834Z" stroke="#757575" stroke-width="4" stroke-linecap="round" stroke-linejoin="round"/>
<path d="M18 25H33" stroke="#FF8A5B" stroke-width="4" stroke-linecap="round"/>
</svg>
