<svg width="50" height="50" viewBox="0 0 50 50" fill="none" xmlns="http://www.w3.org/2000/svg">
<g clip-path="url(#clip0_140_36)">
<path d="M32.144 0C30.1821 0 28.5715 1.61069 28.5715 3.57251C28.5715 5.53467 30.182 7.14501 32.144 7.14501C34.106 7.14501 35.7165 5.53444 35.7165 3.57251C35.7165 1.61069 34.106 0 32.144 0Z" fill="#757575"/>
<path d="M32.144 1.79285C33.1408 1.79285 33.9237 2.57558 33.9237 3.5724C33.9237 4.56933 33.1408 5.35186 32.144 5.35186C31.1472 5.35186 30.3512 4.56899 30.3512 3.5724C30.3512 2.57558 31.1472 1.79285 32.144 1.79285Z" fill="#EE746C"/>
<path d="M2.68262 7.1441V50H8.03311V49.1036V25.0057H41.9669V50.0001H47.3174V49.1037V7.14421H41.9669V9.81946H8.03311V7.14421L2.68262 7.1441Z" fill="#757575"/>
<path d="M4.46155 8.92285H6.25439V11.6155V24.1092V48.2211H4.46155V8.92285Z" fill="white"/>
<path d="M43.7457 8.92285H45.5386V48.2211H43.7457V8.92285Z" fill="white"/>
<path d="M8.03308 11.6155H10.7083V14.2908H8.03308V11.6155Z" fill="#FF8A5B"/>
<path d="M12.5011 11.6155H15.1798V14.2908H12.5011V11.6155Z" fill="#FF8A5B"/>
<path d="M16.9585 11.6155H19.6477V14.2908H16.9585V11.6155Z" fill="#FF8A5B"/>
<path d="M21.4266 11.6155H24.1019V14.2908H21.4266V11.6155Z" fill="#FF8A5B"/>
<path d="M25.8947 11.6155H28.5734V14.2908H25.8947V11.6155Z" fill="#FF8A5B"/>
<path d="M30.3521 11.6155H33.0413V14.2908H30.3521V11.6155Z" fill="#FF8A5B"/>
<path d="M34.8202 11.6155H37.4954V14.2908H34.8202V11.6155Z" fill="#FF8A5B"/>
<path d="M39.2881 11.6155H41.9668V14.2908H39.2881V11.6155Z" fill="#FF8A5B"/>
<path d="M8.03308 16.0697H10.7083V18.745H8.03308V16.0697Z" fill="#FF8A5B"/>
<path d="M12.5011 16.0697H15.1798V18.745H12.5011V16.0697Z" fill="#FF8A5B"/>
<path d="M16.9585 16.0697H19.6477V18.745H16.9585V16.0697Z" fill="#FF8A5B"/>
<path d="M21.4266 16.0697H24.1019V18.745H21.4266V16.0697Z" fill="#FF8A5B"/>
<path d="M25.8947 16.0697H28.5734V18.745H25.8947V16.0697Z" fill="#FF8A5B"/>
<path d="M30.3521 16.0697H33.0413V18.745H30.3521V16.0697Z" fill="#FF8A5B"/>
<path d="M34.8202 16.0697H37.4954V18.745H34.8202V16.0697Z" fill="#FF8A5B"/>
<path d="M39.2881 16.0697H41.9668V18.745H39.2881V16.0697Z" fill="#FF8A5B"/>
<path d="M8.03308 20.5377H10.7083V23.2129H8.03308V20.5377Z" fill="#FF8A5B"/>
<path d="M12.5011 20.5377H15.1798V23.2129H12.5011V20.5377Z" fill="#FF8A5B"/>
<path d="M16.9585 20.5377H19.6477V23.2129H16.9585V20.5377Z" fill="#FF8A5B"/>
<path d="M21.4266 20.5377H24.1019V23.2129H21.4266V20.5377Z" fill="#FF8A5B"/>
<path d="M25.8947 20.5377H28.5734V23.2129H25.8947V20.5377Z" fill="#FF8A5B"/>
<path d="M30.3521 20.5377H33.0413V23.2129H30.3521V20.5377Z" fill="#FF8A5B"/>
<path d="M34.8202 20.5377H37.4954V23.2129H34.8202V20.5377Z" fill="#FF8A5B"/>
<path d="M39.2881 20.5377H41.9668V23.2129H39.2881V20.5377Z" fill="#FF8A5B"/>
<path d="M44.6456 8.92285H45.5385V11.6155V24.1092V48.2211H44.6456V8.92285Z" fill="#EBFEFF"/>
<path d="M5.36133 8.92285H6.25423V11.6155V24.1092V48.2211H5.36133V8.92285Z" fill="#EBFEFF"/>
<path d="M32.1427 2.56018C32.9247 2.56018 33.5387 3.1735 33.5387 3.95613C33.5387 4.73742 32.9246 5.35196 32.1427 5.35196C31.3606 5.35196 30.7363 4.73787 30.7363 3.95613C30.7363 3.17462 31.3608 2.56018 32.1427 2.56018Z" fill="#FB9761"/>
<path d="M8.36853 11.951H10.3729V13.9553H8.36853V11.951Z" fill="#FF8A5B"/>
<path d="M12.8383 11.951H14.8426V13.9553H12.8383V11.951Z" fill="#FF8A5B"/>
<path d="M17.301 11.951H19.3054V13.9553H17.301V11.951Z" fill="#FF8A5B"/>
<path d="M21.7621 11.951H23.7664V13.9553H21.7621V11.951Z" fill="#FF8A5B"/>
<path d="M26.2318 11.951H28.2362V13.9553H26.2318V11.951Z" fill="#FF8A5B"/>
<path d="M30.6946 11.951H32.6989V13.9553H30.6946V11.951Z" fill="#FF8A5B"/>
<path d="M35.1556 11.951H37.16V13.9553H35.1556V11.951Z" fill="#FF8A5B"/>
<path d="M39.6254 11.951H41.6297V13.9553H39.6254V11.951Z" fill="#FF8A5B"/>
<path d="M8.36853 16.4051H10.3729V18.4095H8.36853V16.4051Z" fill="#FF8A5B"/>
<path d="M12.8383 16.4051H14.8426V18.4095H12.8383V16.4051Z" fill="#FF8A5B"/>
<path d="M17.301 16.4051H19.3054V18.4095H17.301V16.4051Z" fill="#FF8A5B"/>
<path d="M21.7621 16.4051H23.7664V18.4095H21.7621V16.4051Z" fill="#FF8A5B"/>
<path d="M26.2318 16.4051H28.2362V18.4095H26.2318V16.4051Z" fill="#FF8A5B"/>
<path d="M30.6946 16.4051H32.6989V18.4095H30.6946V16.4051Z" fill="#FF8A5B"/>
<path d="M35.1556 16.4051H37.16V18.4095H35.1556V16.4051Z" fill="#FF8A5B"/>
<path d="M39.6254 16.4051H41.6297V18.4095H39.6254V16.4051Z" fill="#FF8A5B"/>
<path d="M8.36853 20.8732H10.3729V22.8774H8.36853V20.8732Z" fill="#FF8A5B"/>
<path d="M12.8383 20.8732H14.8426V22.8774H12.8383V20.8732Z" fill="#FF8A5B"/>
<path d="M17.301 20.8732H19.3054V22.8774H17.301V20.8732Z" fill="#FF8A5B"/>
<path d="M21.7621 20.8732H23.7664V22.8774H21.7621V20.8732Z" fill="#FF8A5B"/>
<path d="M26.2318 20.8732H28.2362V22.8774H26.2318V20.8732Z" fill="#FF8A5B"/>
<path d="M30.6946 20.8732H32.6989V22.8774H30.6946V20.8732Z" fill="#FF8A5B"/>
<path d="M35.1556 20.8732H37.16V22.8774H35.1556V20.8732Z" fill="#FF8A5B"/>
<path d="M39.6254 20.8732H41.6297V22.8774H39.6254V20.8732Z" fill="#FF8A5B"/>
</g>
<defs>
<clipPath id="clip0_140_36">
<rect width="50" height="50" fill="white"/>
</clipPath>
</defs>
</svg>
